PathFileType	4	(X/Y/Z)	D:\TRACE\spot_10-12-23\spot_arm_body_motion_1_10-v60.trc
DataRate	CameraRate	NumFrames	NumMarkers	Units	OrigDataRate	OrigDataStartFrame	OrigNumFrames
100.00	100.00	      21	9	mm	100.00	1	      7000
Frame#	Time	front left toe			Front right toe			aft left toe			aft right toe			Arm			FL body			FR body			AL Body			AR Body			
		X1	Y1	Z1	X2	Y2	Z2	X3	Y3	Z3	X4	Y4	Z4	X5	Y5	Z5	X6	Y6	Z6	X7	Y7	Z7	X8	Y8	Z8	X9	Y9	Z9	

1	0.000	-301.91263	27.13983	47.97824	293.06406	24.15522	58.96949	-307.99417	28.76889	659.05487	277.49487	26.74367	672.59418	15.83637	879.60199	-136.70216	-76.62172	613.97815	-42.52216	77.57176	618.31506	-41.81243	-84.68935	604.76855	839.36353	56.29441	603.90387	843.10309	
2	0.010	-301.91452	27.12564	47.88667	293.14017	24.08587	58.92955	-308.04987	28.74585	659.03699	277.53314	26.74852	672.61591	15.84923	880.02466	-137.21828	-76.60141	615.21466	-42.46414	78.07092	619.69415	-41.55626	-84.90698	605.25299	839.64807	55.91948	604.51428	843.54816	
3	0.020	-301.93082	27.13909	47.79607	293.09531	23.99502	58.86767	-308.02554	28.76313	658.99921	277.51013	26.67358	672.58344	15.90849	880.43976	-137.62204	-76.36438	616.40942	-42.19915	78.37875	620.81360	-41.26359	-85.09090	605.49976	839.72974	55.87444	604.86108	843.85205	
4	0.030	-301.94635	27.14950	47.66363	293.09253	23.98327	58.76135	-308.03644	28.72522	658.89850	277.47495	26.68436	672.58234	16.01733	880.78247	-138.00215	-76.34274	617.56128	-42.06863	78.37121	622.09570	-40.97277	-85.24721	605.74432	839.88562	56.04604	604.68640	843.54095	
5	0.040	-301.94901	27.15401	47.55601	293.10654	23.90753	58.74196	-308.04474	28.73325	658.88000	277.46701	26.66683	672.52673	16.25599	881.21912	-138.42351	-76.15629	618.62085	-41.86436	78.66224	623.18579	-40.80915	-85.28164	605.92719	840.06683	56.04517	604.86670	843.76508	
6	0.050	-301.92517	27.18220	47.46674	293.12018	23.86884	58.66301	-308.02426	28.72014	658.86304	277.49866	26.69959	672.54474	16.11492	881.76227	-138.89052	-76.14712	619.65472	-41.68401	78.70316	624.06854	-40.57109	-85.57021	606.12695	839.79614	56.15971	605.13898	844.25305	
7	0.060	-301.93021	27.20055	47.38492	293.13156	23.87034	58.64816	-307.98917	28.75585	658.84515	277.46991	26.74463	672.53174	16.27896	882.17224	-139.20323	-75.87652	620.63214	-41.59390	78.53992	625.33990	-40.54816	-85.57925	606.18127	839.96655	56.04556	605.24554	844.36346	
8	0.070	-301.95627	27.15292	47.34694	293.16919	23.82804	58.64338	-308.05750	28.73211	658.84546	277.48584	26.70134	672.52869	16.33665	882.53308	-139.60931	-75.97238	621.42499	-41.37020	78.82670	625.90552	-40.30825	-85.34686	606.04663	840.20911	55.96126	605.30298	844.46490	
9	0.080	-301.95306	27.17154	47.23204	293.13080	23.81798	58.63165	-308.04935	28.70279	658.84680	277.50128	26.64479	672.53381	16.45595	882.85809	-140.03091	-75.74130	622.40204	-41.37117	78.91103	626.75629	-40.07438	-85.01472	606.17017	840.68469	56.22597	605.42712	844.98602	
10	0.090	-301.97653	27.16146	47.17382	293.15335	23.77305	58.62270	-308.05493	28.70133	658.80524	277.49741	26.63978	672.50531	16.46135	883.31226	-140.47156	-75.78658	623.05945	-41.27916	78.77319	627.62177	-40.03098	-85.01031	606.23303	840.81372	56.28017	605.47430	845.12488	
11	0.100	-301.97031	27.18735	47.11367	293.12009	23.73710	58.57411	-308.04358	28.64649	658.77411	277.47104	26.66987	672.52893	16.37346	883.90826	-140.97839	-75.72479	623.60791	-41.06945	78.52178	628.14758	-39.87933	-84.99281	606.30841	840.89520	56.24782	605.46893	845.25397	
12	0.110	-301.90771	27.21280	47.05635	293.12140	23.71896	58.57598	-308.02731	28.69337	658.79468	277.47534	26.66229	672.52698	16.46796	884.29639	-141.31898	-75.62512	624.43591	-40.98223	79.13972	628.80914	-39.67853	-84.97799	606.31134	840.97955	56.33121	605.47412	845.44788	
13	0.120	-301.91766	27.17517	47.06835	293.11462	23.74583	58.57986	-307.83994	29.05516	658.62744	277.51843	26.64586	672.56067	16.32876	884.80591	-141.60153	-75.65475	624.96802	-40.76500	79.18108	629.29858	-39.37032	-85.31649	606.48669	841.11707	56.05569	605.41278	845.28137	
14	0.130	-301.91309	27.17537	47.03609	293.10574	23.77774	58.56350	-308.04041	28.70903	658.86957	277.50330	26.62945	672.54132	16.30615	885.11438	-142.11211	-75.60478	625.30310	-40.56057	79.20960	629.71973	-39.22359	-85.38418	606.45178	841.10077	56.12553	605.36713	845.44464	
15	0.140	-301.95282	27.13395	46.98573	293.06686	23.69125	58.51602	-308.01294	28.68005	658.80859	277.48914	26.61905	672.54358	16.42518	885.47034	-142.46608	-75.49284	625.66180	-40.34078	79.29142	629.96484	-38.55894	-85.30784	606.36829	841.16968	55.69671	605.60236	845.71271	
16	0.150	-301.87015	27.15187	46.95128	293.05972	23.72854	58.47891	-307.81860	29.04165	658.69208	277.49997	26.59089	672.54620	16.28578	885.94507	-142.84839	-75.47038	626.15387	-40.17349	79.23522	630.54700	-39.14742	-85.17570	606.19165	841.47681	55.70375	605.52271	845.86731	
17	0.160	-301.87524	27.15590	46.90691	293.06216	23.70624	58.47232	-307.96835	28.76436	658.78400	277.54691	26.59255	672.54480	16.41071	886.40393	-143.27237	-75.42046	626.73273	-40.06448	78.84763	630.97284	-39.02727	-85.09856	606.05719	841.64087	55.76189	605.39496	845.97882	
18	0.170	-301.84836	27.21818	46.88699	293.06299	23.65159	58.45109	-307.83075	29.08854	658.64581	277.55249	26.57035	672.53046	16.59428	886.96130	-143.52277	-75.27328	626.99426	-39.90770	79.43029	631.27557	-38.80815	-85.08289	605.94153	841.80627	55.57589	605.15454	845.60114	
19	0.180	-301.87653	27.16552	46.88383	293.06696	23.69943	58.46166	-307.85718	29.06484	658.66919	277.55917	26.57791	672.56183	16.28627	887.37817	-143.87393	-75.28793	627.20294	-39.91315	79.57582	631.70111	-38.88205	-85.15678	605.84186	841.91718	55.83910	604.76556	845.30151	
20	0.190	-301.86639	27.10037	46.83177	293.06107	23.67267	58.43581	-308.03220	28.73302	658.84949	277.50800	26.53108	672.61804	16.18330	887.70660	-144.18773	-75.29655	627.41235	-39.77033	79.54588	631.93903	-38.56785	-85.19118	605.74573	842.05536	55.80439	604.57440	845.38318	
21	0.200	-301.85455	27.17609	46.85438	293.08447	23.57722	58.44064	-307.98557	28.69423	658.90619	277.58276	26.50818	672.56989	16.23692	888.09363	-144.63074	-75.16128	627.63232	-39.62652	79.59708	632.16931	-38.39390	-85.23812	605.66052	842.15356	55.78585	604.44635	845.50250	
